<svg width="185" height="110" viewBox="0 0 185 110" fill="none" xmlns="http://www.w3.org/2000/svg">
<path d="M164.617 9.49846L158.619 27.7947L182.914 32.2938L162.218 47.8906L175.529 55.3891L154.12 63.1875L172.162 82.2755L147.221 78.7843L156.219 93.7812L137.023 90.1819V106.379L118.727 93.7812L102.23 108.478L93.5321 90.1819L76.4356 102.179L70.4368 91.6816L46.7417 106.379V86.5827H19.4473L27.5456 73.3854L2.05078 70.386L17.6476 55.3891L2.05078 42.8394L27.5456 40.0922L17.6476 23.2956H42.8424L52.449 9.49846L66.8374 17.8967L78.535 7.09895L90.8326 15.4972L109.129 2L110.928 15.4972L134.624 2L137.023 17.8967L164.617 9.49846Z" fill="blue" stroke="black" stroke-width="2.88083" stroke-linejoin="round"/>
</svg>
