<svg width="135" height="83" viewBox="0 0 135 83" fill="none" xmlns="http://www.w3.org/2000/svg">
<path d="M10.1381 59.7478C-0.92805 53.6599 3.29872 41.6977 10.8732 38.364C3.45859 30.8194 13.7885 24.0535 19.4198 24.6077C18.6498 15.5745 35.7544 12.4621 42.1462 17.0873C41.2712 6.8219 60.5411 2.5867 67.5113 11.4098C81.477 2.09653 103.18 11.8851 97.3534 21.2111C102.153 16.8729 108.315 18.9196 111.422 23.8246C118.721 19.9919 132.743 24.4154 127.103 35.9327C133.813 36.9661 132.055 49.1557 128.257 49.4795C134.031 56.0106 121.323 66.9998 115.965 63.1138C116.751 72.3327 102.931 75.1844 94.6929 70.717C88.1889 79.336 73.1106 77.1057 70.9609 71.2923C65.0234 77.6192 61.112 76.9674 53.7157 72.7621C41.4777 81.3571 17.2059 74.3959 21.7751 66.7993C13.5094 69.293 7.40456 62.9908 10.1381 59.7478Z" fill="rgb(219 39 119)"/>
<path d="M97.3534 21.2111C103.18 11.8851 81.477 2.09653 67.5113 11.4098C60.5411 2.5867 41.2712 6.8219 42.1462 17.0873C38.8325 14.6895 32.6396 14.3712 27.5507 15.8795M118.327 22.5055C124.886 22.9176 131.211 27.5431 127.103 35.9327C133.813 36.9661 132.055 49.1557 128.257 49.4795C132.216 53.9573 127.487 60.5307 122.395 62.9689M10.0479 28.6807C7.85524 31.2274 7.27631 34.704 10.8732 38.364C3.29872 41.6977 -0.92805 53.6599 10.1381 59.7478C8.50918 61.6803 9.34428 64.4481 12.5794 66.0447M25.8247 73.9028C32.7229 77.3632 45.7612 78.3487 53.7157 72.7621C61.112 76.9674 65.0234 77.6192 70.9609 71.2923C73.1106 77.1057 88.1889 79.336 94.6929 70.7171C99.4998 73.3238 106.207 73.4385 110.804 71.2503" stroke="black" stroke-width="2" stroke-linecap="round" stroke-linejoin="round"/>
<path d="M103.322 16.4797L110.172 4.05701M110.184 16.242L119.87 5.5949M112.018 22.1627L123.6 14.1612" stroke="black" stroke-width="2" stroke-linecap="round" stroke-linejoin="round"/>
<path d="M28.6351 67.1065L21.7854 79.5292M21.7728 67.3442L12.087 77.9913M19.9391 61.4236L8.35718 69.4251" stroke="black" stroke-width="2" stroke-linecap="round" stroke-linejoin="round"/>
<path d="M28.6888 22.8409L19.8355 11.7567M21.8852 23.7681L10.5373 14.9137M21.0799 29.9136L8.31093 23.9876" stroke="black" stroke-width="2" stroke-linecap="round" stroke-linejoin="round"/>
<path d="M107.625 66.9699L116.478 78.0542M114.429 66.0428L125.777 74.8971M115.234 59.8972L128.003 65.8232" stroke="black" stroke-width="2" stroke-linecap="round" stroke-linejoin="round"/>
</svg>
