<svg width="173" height="97" viewBox="0 0 173 97" fill="none" xmlns="http://www.w3.org/2000/svg">
<path d="M64.8355 7.5633C73.6221 11.3125 82.7489 8.1568 82.1297 1.76766C84.443 9.50883 103.237 14.0405 109.371 7.51395C115.61 20.0277 140.816 18.9069 147.656 9.61062C142.27 21.6152 153.294 35.8091 167.646 32.5335C155.745 36.6712 153.53 60.7831 171.074 69.4774C151.261 69.4993 145.331 79.6478 145.528 91.3267C133.748 81.7952 116.042 87.1613 112.115 94.6331C107.217 84.6707 78.9308 88.4216 73.595 93.3345C71.689 81.1524 43.8811 78.3371 38.45 88.1658C39.0985 76.3242 23.5586 67.3309 10.3096 74.4599C16.8143 66.6537 19.2609 51.3263 2.48662 46.7281C19.1829 46.7096 19.971 32.4578 15.5671 28.7918C26.0766 32.3653 42.6513 23.489 36.6462 13.0779C35.5808 12.2239 34.7737 11.2271 34.3181 10.0979C35.3114 11.0988 36.0794 12.0952 36.6462 13.0779C43.8461 18.8493 62.8403 18.0964 64.8355 7.5633Z" fill="rgb(250 204 21)" stroke="black" stroke-width="3.36336" stroke-linecap="round" stroke-linejoin="round"/>
</svg>
