<svg width="108" height="68" viewBox="0 0 108 68" fill="none" xmlns="http://www.w3.org/2000/svg">
<path fill-rule="evenodd" clip-rule="evenodd" d="M15.6876 47.7279C5.46288 42.8647 0.999962 35.6875 0.999962 27.9194C0.999962 18.3614 10.0014 8.91927 24.8924 4.25067C32.115 1.98625 40.6009 1 50.3509 1C80.2026 1 107.732 10.7519 106.557 27.9194C106.557 36.4376 101.462 44.2707 91.0851 48.9469C84.1713 52.0627 75.0175 53.6197 63.0807 53.6197C55.1006 54.1946 47.854 54.1901 41.3737 53.7003C33.0581 60.4677 23.7108 63.1548 10 66.8777C19.2718 61.4922 26.1704 57.3356 31.3134 52.4552C25.1455 51.3594 19.9224 49.7421 15.6876 47.7279Z" fill="rgb(21 128 61)"/>
<path d="M15.6876 47.7279L15.258 48.631L15.258 48.631L15.6876 47.7279ZM24.8924 4.25067L25.1915 5.20487L25.1915 5.20487L24.8924 4.25067ZM106.557 27.9194H105.557C105.557 27.8966 105.557 27.8738 105.559 27.8511L106.557 27.9194ZM91.0851 48.9469L90.6743 48.0352L91.0851 48.9469ZM63.0807 53.6197L63.0089 52.6223C63.0328 52.6206 63.0568 52.6197 63.0807 52.6197V53.6197ZM41.3737 53.7003L40.7425 52.9247C40.941 52.7631 41.1939 52.6838 41.4491 52.7031L41.3737 53.7003ZM10 66.8777L10.2621 67.8428C9.77765 67.9743 9.27078 67.7263 9.0773 67.2632C8.88383 66.8 9.06371 66.2651 9.49777 66.013L10 66.8777ZM31.3134 52.4552L31.4883 51.4706C31.8599 51.5366 32.1626 51.8062 32.2711 52.1676C32.3797 52.5291 32.2755 52.9208 32.0017 53.1806L31.3134 52.4552ZM1.99996 27.9194C1.99996 35.2205 6.16109 42.0895 16.1171 46.8249L15.258 48.631C4.76468 43.64 -3.81477e-05 36.1545 -3.81477e-05 27.9194H1.99996ZM25.1915 5.20487C10.4602 9.82344 1.99996 19.0186 1.99996 27.9194H-3.81477e-05C-3.81477e-05 17.7042 9.54268 8.0151 24.5932 3.29647L25.1915 5.20487ZM50.3509 2C40.6616 2 32.2848 2.98099 25.1915 5.20487L24.5932 3.29647C31.9451 0.991521 40.5402 0 50.3509 0V2ZM105.559 27.8511C106.101 19.9289 100.049 13.4756 89.6877 8.93791C79.3854 4.4261 65.1875 2 50.3509 2V0C65.366 0 79.8584 2.44987 90.49 7.10589C101.062 11.736 108.187 18.7424 107.554 27.9877L105.559 27.8511ZM90.6743 48.0352C100.76 43.4899 105.557 35.9747 105.557 27.9194H107.557C107.557 36.9005 102.163 45.0514 91.496 49.8586L90.6743 48.0352ZM63.0807 52.6197C74.9445 52.6197 83.9402 51.0699 90.6743 48.0352L91.496 49.8586C84.4024 53.0554 75.0904 54.6197 63.0807 54.6197V52.6197ZM41.4491 52.7031C47.8747 53.1888 55.0718 53.1941 63.0089 52.6223L63.1526 54.6171C55.1295 55.1952 47.8333 55.1914 41.2984 54.6974L41.4491 52.7031ZM42.0049 54.4759C33.4988 61.3984 23.9404 64.1287 10.2621 67.8428L9.738 65.9127C23.4812 62.181 32.6174 59.537 40.7425 52.9247L42.0049 54.4759ZM9.49777 66.013C18.7904 60.6154 25.582 56.5153 30.625 51.7298L32.0017 53.1806C26.7587 58.1559 19.7532 62.369 10.5023 67.7424L9.49777 66.013ZM16.1171 46.8249C20.2544 48.7927 25.3883 50.3869 31.4883 51.4706L31.1385 53.4398C24.9027 52.3319 19.5904 50.6916 15.258 48.631L16.1171 46.8249Z" fill="black"/>
</svg>
