<svg width="195" height="107" viewBox="0 0 195 107" fill="none" xmlns="http://www.w3.org/2000/svg">
<path d="M119.277 78.2312C132.225 84.3832 143.798 77.7097 143.798 74.9135C151.128 76.0976 157.134 74.9135 157.134 69.6273C166.858 69.6273 172.984 66.6159 171.546 58.0121C180.369 49.6042 178.926 45.1718 174.127 37.3628C177.885 30.0716 174.871 22.7016 162.297 19.5099C162.297 9.97855 156.446 6.7958 143.798 7.03429C131.922 0.0341187 125.752 -0.315941 109.275 4.88334C98.2704 -0.974762 90.2735 0.43351 79.2695 4.88334C64.8721 0.591599 56.8949 -0.821205 43.7787 8.32487C37.0665 8.13856 20.6507 9.70585 15.9153 25.4159C3.35367 26.6205 0.0658569 39.4682 1.21303 44.7739C1.21303 52.7324 9.36334 70.7027 26.3559 66.6159C25.3235 83.6515 48.1523 81.4576 59.6958 78.2312C65.0732 86.4047 82.2809 84.4689 85.9375 78.2312C91.9602 86.4049 110.99 86.9203 119.277 78.2312Z" fill="yellow" stroke="black" stroke-width="2" stroke-linecap="round" stroke-linejoin="round"/>
<path d="M177.579 79.3965C178.205 83.9378 173.28 87.2148 165.922 88.229C158.564 89.2431 150.645 87.7363 150.02 83.195C149.394 78.6537 154.981 75.0903 162.339 74.0762C171.233 72.1832 176.779 73.5916 177.579 79.3965Z" fill="yellow" stroke="black" stroke-width="2" stroke-linecap="round" stroke-linejoin="round"/>
<path d="M187.565 92.7145C187.939 95.4225 184.196 97.4876 178.684 98.2473C173.172 99.007 167.295 98.2678 166.921 95.5599C166.548 92.8519 170.791 90.6015 176.303 89.8418C182.979 88.5239 187.088 89.2531 187.565 92.7145Z" fill="yellow" stroke="black" stroke-width="2" stroke-linecap="round" stroke-linejoin="round"/>
<path d="M183.196 102.919C183.373 104.842 185.371 105.746 188.018 105.503C190.666 105.26 193.289 103.93 193.112 102.008C192.935 100.085 190.683 99.1221 188.035 99.3655C184.777 99.3856 182.97 100.462 183.196 102.919Z" fill="yellow" stroke="black" stroke-width="2" stroke-linecap="round" stroke-linejoin="round"/>
</svg>
